<svg xmlns="http://www.w3.org/2000/svg" xmlns:xlink="http://www.w3.org/1999/xlink" width="163.177" height="57.083" viewBox="0 0 163.177 57.083">
  <defs>
    <clipPath id="clip-path">
      <path id="Path_10" data-name="Path 10" d="M495.631,279.4l-13.513,17.139L479.8,279.4H469.2l3.343,22.805a2.3,2.3,0,0,1,.085.312.689.689,0,0,0,.085.312l-.057-.057c.113.51.255,1.076.4,1.671a7.57,7.57,0,0,0,.652,1.7,6.849,6.849,0,0,0,.907,1.332,1.65,1.65,0,0,0,1.275.538h8.527a2.179,2.179,0,0,0,1.19-.425,13.227,13.227,0,0,0,1.3-.992,14.789,14.789,0,0,0,1.162-1.133c.34-.368.595-.68.793-.878L508.209,279.4H495.631Z" transform="translate(-469.2 -279.4)" fill="none"/>
    </clipPath>
    <linearGradient id="linear-gradient" x1="0.438" y1="-0.182" x2="0.657" y2="1.036" gradientUnits="objectBoundingBox">
      <stop offset="0" stop-color="#cd7200"/>
      <stop offset="0.5" stop-color="#ffe100"/>
      <stop offset="1" stop-color="#cd7200"/>
    </linearGradient>
    <clipPath id="clip-path-2">
      <path id="Path_12" data-name="Path 12" d="M584.955,279.4,574.7,308.041h11.19l10.2-28.641Z" transform="translate(-574.7 -279.4)" fill="none"/>
    </clipPath>
    <linearGradient id="linear-gradient-2" x1="0.226" y1="-0.332" x2="0.625" y2="0.884" xlink:href="#linear-gradient"/>
    <clipPath id="clip-path-3">
      <path id="Path_14" data-name="Path 14" d="M641.937,287.9h10.17a3.05,3.05,0,0,0,.283.652l-.057-.057v.113q-.128.382-.425,1.19h-8.584l-3.031,2.606,1.672-4.476Zm-8.442-8.5-10.6,28.641h11.615l3.626-9.83h14.108a10.723,10.723,0,0,0,3.938-.793,14.422,14.422,0,0,0,3.8-2.153,11.375,11.375,0,0,0,2.833-3.314,8.52,8.52,0,0,0,1.1-4.278,8.21,8.21,0,0,0-.311-2.578,10.034,10.034,0,0,0-1.048-2.691,6.755,6.755,0,0,0-1.87-2.125,4.6,4.6,0,0,0-2.8-.878H633.5Z" transform="translate(-622.9 -279.4)" fill="none"/>
    </clipPath>
    <linearGradient id="linear-gradient-3" x1="0.306" y1="-0.515" x2="0.514" y2="0.702" xlink:href="#linear-gradient"/>
  </defs>
  <g id="LA_VIP_Logo-silver-gold" data-name="LA VIP Logo-silver-gold" transform="translate(-191.7 -179.1)">
    <g id="Group_12" data-name="Group 12" transform="translate(270.314 207.514)" clip-path="url(#clip-path)">
      <path id="Path_9" data-name="Path 9" d="M495.631,279.4l-13.513,17.139L479.8,279.4H469.2l3.343,22.805a2.3,2.3,0,0,1,.085.312.689.689,0,0,0,.085.312l-.057-.057c.113.51.255,1.076.4,1.671a7.57,7.57,0,0,0,.652,1.7,6.849,6.849,0,0,0,.907,1.332,1.65,1.65,0,0,0,1.275.538h8.527a2.179,2.179,0,0,0,1.19-.425,13.227,13.227,0,0,0,1.3-.992,14.789,14.789,0,0,0,1.162-1.133c.34-.368.595-.68.793-.878L508.209,279.4H495.631Z" transform="translate(-469.2 -279.4)" fill-rule="evenodd" fill="url(#linear-gradient)"/>
    </g>
    <g id="Group_13" data-name="Group 13" transform="translate(300.201 207.514)" clip-path="url(#clip-path-2)">
      <path id="Path_11" data-name="Path 11" d="M584.955,279.4,574.7,308.041h11.19l10.2-28.641Z" transform="translate(-574.7 -279.4)" fill-rule="evenodd" fill="url(#linear-gradient-2)"/>
    </g>
    <g id="Group_14" data-name="Group 14" transform="translate(313.856 207.514)" clip-path="url(#clip-path-3)">
      <path id="Path_13" data-name="Path 13" d="M641.937,287.9h10.17a3.05,3.05,0,0,0,.283.652l-.057-.057v.113q-.128.382-.425,1.19h-8.584l-3.031,2.606,1.672-4.476Zm-8.442-8.5-10.6,28.641h11.615l3.626-9.83h14.108a10.723,10.723,0,0,0,3.938-.793,14.422,14.422,0,0,0,3.8-2.153,11.375,11.375,0,0,0,2.833-3.314,8.52,8.52,0,0,0,1.1-4.278,8.21,8.21,0,0,0-.311-2.578,10.034,10.034,0,0,0-1.048-2.691,6.755,6.755,0,0,0-1.87-2.125,4.6,4.6,0,0,0-2.8-.878H633.5Z" transform="translate(-622.9 -279.4)" fill-rule="evenodd" fill="url(#linear-gradient-3)"/>
    </g>
    <path id="Path_15" data-name="Path 15" d="M221.332,299.7H206.148l7.394-20.2H202.125L191.7,308.141h23.825a14.651,14.651,0,0,0,1.955-2.1c.708-.935,1.388-1.87,1.983-2.8s1.077-1.756,1.473-2.465c.368-.708.51-1.048.4-1.048Z" transform="translate(0 -71.957)" fill-rule="evenodd"/>
    <path id="Path_16" data-name="Path 16" d="M408.1,195.389l-12.352-3.456-.538-12.833L388.1,189.78l-12.352-3.456,5.524,6.969a81.566,81.566,0,0,0-54.222,16.941c-.085-.227-.17-.425-.255-.652a7.313,7.313,0,0,0-.935-1.473,1.717,1.717,0,0,0-1.36-.623h-8.7a2.1,2.1,0,0,0-1.077.425,13.225,13.225,0,0,0-1.3.992c-.425.368-.822.765-1.19,1.133a4.464,4.464,0,0,0-.708.878l.057-.113L292.4,236.1h23.117a3.974,3.974,0,0,0,.793-.595c.34-.312.708-.708,1.133-1.133s.822-.907,1.246-1.416.793-.963,1.1-1.416l.878,4.533h10.85L327.9,212.982a5.115,5.115,0,0,0-.142-.538,82.169,82.169,0,0,1,55.072-14.76L376.651,207l12.04-4.476,7.989,10.057-.538-12.833,12.04-4.476Zm-90.172,23.117a.618.618,0,0,0-.113.142l.113-.142Zm1.388,9.264h-7.961a90.013,90.013,0,0,1,6.856-7.309ZM389.23,199.78l-6.941,2.578,4.108-6.176-4.589-5.808,7.139,1.983,4.108-6.176.312,7.394,7.139,1.983-6.941,2.578.312,7.394-4.589-5.808Z" transform="translate(-72.172)" fill-rule="evenodd"/>
  </g>
</svg>
