<svg width="200" height="120" viewBox="0 0 200 120" fill="none" xmlns="http://www.w3.org/2000/svg">
  <rect width="200" height="120" rx="8" fill="#F3F4F6"/>
  <rect x="12" y="12" width="176" height="96" rx="4" fill="#FFFFFF"/>
  <rect x="20" y="20" width="48" height="35" rx="4" fill="#E5E7EB"/>
  <circle cx="35" cy="30" r="4" fill="#9CA3AF"/>
  <polygon points="30,40 40,30 50,40 45,45 25,45" fill="#D1D5DB"/>
  <rect x="20" y="58" width="30" height="3" rx="1.5" fill="#374151"/>
  <rect x="20" y="64" width="20" height="2" rx="1" fill="#6B7280"/>
  <rect x="76" y="20" width="48" height="35" rx="4" fill="#E5E7EB"/>
  <circle cx="91" cy="30" r="4" fill="#9CA3AF"/>
  <polygon points="86,40 96,30 106,40 101,45 81,45" fill="#D1D5DB"/>
  <rect x="76" y="58" width="30" height="3" rx="1.5" fill="#374151"/>
  <rect x="76" y="64" width="20" height="2" rx="1" fill="#6B7280"/>
  <rect x="132" y="20" width="48" height="35" rx="4" fill="#E5E7EB"/>
  <circle cx="147" cy="30" r="4" fill="#9CA3AF"/>
  <polygon points="142,40 152,30 162,40 157,45 137,45" fill="#D1D5DB"/>
  <rect x="132" y="58" width="30" height="3" rx="1.5" fill="#374151"/>
  <rect x="132" y="64" width="20" height="2" rx="1" fill="#6B7280"/>
  <rect x="60" y="75" width="80" height="8" rx="4" fill="#3B82F6"/>
  <text x="100" y="81" text-anchor="middle" font-family="Arial, sans-serif" font-size="6" fill="#FFFFFF">View Gallery</text>
</svg>