<svg width="200" height="120" viewBox="0 0 200 120" fill="none" xmlns="http://www.w3.org/2000/svg">
  <rect width="200" height="120" rx="8" fill="#F3F4F6"/>
  <rect x="12" y="12" width="176" height="96" rx="4" fill="#FFFFFF"/>
  <rect x="20" y="20" width="48" height="32" rx="4" fill="#1F2937"/>
  <rect x="25" y="25" width="38" height="15" rx="2" fill="#374151"/>
  <circle cx="30" cy="47" r="3" fill="#6B7280"/>
  <circle cx="58" cy="47" r="3" fill="#6B7280"/>
  <rect x="25" y="30" width="15" height="8" rx="1" fill="#60A5FA"/>
  <rect x="76" y="20" width="48" height="32" rx="4" fill="#1F2937"/>
  <rect x="81" y="25" width="38" height="15" rx="2" fill="#374151"/>
  <circle cx="86" cy="47" r="3" fill="#6B7280"/>
  <circle cx="114" cy="47" r="3" fill="#6B7280"/>
  <rect x="81" y="30" width="15" height="8" rx="1" fill="#60A5FA"/>
  <rect x="132" y="20" width="48" height="32" rx="4" fill="#1F2937"/>
  <rect x="137" y="25" width="38" height="15" rx="2" fill="#374151"/>
  <circle cx="142" cy="47" r="3" fill="#6B7280"/>
  <circle cx="170" cy="47" r="3" fill="#6B7280"/>
  <rect x="137" y="30" width="15" height="8" rx="1" fill="#60A5FA"/>
  <rect x="20" y="65" width="160" height="6" rx="3" fill="#374151"/>
  <text x="100" y="70" text-anchor="middle" font-family="Arial, sans-serif" font-size="6" fill="#FFFFFF">Luxury Fleet Available</text>
</svg>