<svg width="200" height="120" viewBox="0 0 200 120" fill="none" xmlns="http://www.w3.org/2000/svg">
  <rect width="200" height="120" rx="8" fill="#F3F4F6"/>
  <rect x="12" y="12" width="176" height="96" rx="4" fill="#FFFFFF"/>
  <rect x="20" y="20" width="50" height="35" rx="4" fill="#E5E7EB"/>
  <rect x="25" y="25" width="40" height="20" rx="2" fill="#DBEAFE"/>
  <rect x="25" y="48" width="25" height="3" rx="1.5" fill="#374151"/>
  <rect x="25" y="52" width="15" height="2" rx="1" fill="#F59E0B"/>
  <rect x="75" y="20" width="50" height="35" rx="4" fill="#E5E7EB"/>
  <rect x="80" y="25" width="40" height="20" rx="2" fill="#DBEAFE"/>
  <rect x="80" y="48" width="25" height="3" rx="1.5" fill="#374151"/>
  <rect x="80" y="52" width="15" height="2" rx="1" fill="#F59E0B"/>
  <rect x="130" y="20" width="50" height="35" rx="4" fill="#E5E7EB"/>
  <rect x="135" y="25" width="40" height="20" rx="2" fill="#DBEAFE"/>
  <rect x="135" y="48" width="25" height="3" rx="1.5" fill="#374151"/>
  <rect x="135" y="52" width="15" height="2" rx="1" fill="#F59E0B"/>
  <rect x="20" y="65" width="160" height="8" rx="4" fill="#059669"/>
  <text x="100" y="71" text-anchor="middle" font-family="Arial, sans-serif" font-size="6" fill="#FFFFFF">Premium Hotels Available</text>
  <g transform="translate(70, 80)">
    <polygon points="10,2 11,4 13,4 11.5,5.5 12,8 10,7 8,8 8.5,5.5 7,4 9,4" fill="#F59E0B"/>
    <polygon points="20,2 21,4 23,4 21.5,5.5 22,8 20,7 18,8 18.5,5.5 17,4 19,4" fill="#F59E0B"/>
    <polygon points="30,2 31,4 33,4 31.5,5.5 32,8 30,7 28,8 28.5,5.5 27,4 29,4" fill="#F59E0B"/>
    <polygon points="40,2 41,4 43,4 41.5,5.5 42,8 40,7 38,8 38.5,5.5 37,4 39,4" fill="#F59E0B"/>
    <polygon points="50,2 51,4 53,4 51.5,5.5 52,8 50,7 48,8 48.5,5.5 47,4 49,4" fill="#F59E0B"/>
  </g>
</svg>