<svg width="200" height="120" viewBox="0 0 200 120" fill="none" xmlns="http://www.w3.org/2000/svg">
  <rect width="200" height="120" rx="8" fill="#F3F4F6"/>
  <rect x="12" y="12" width="176" height="96" rx="4" fill="#FFFFFF"/>
  
  <!-- Heading -->
  <rect x="60" y="20" width="80" height="8" rx="4" fill="#374151"/>
  <text x="100" y="26" text-anchor="middle" font-family="Arial, sans-serif" font-size="6" fill="#FFFFFF">HOTEL PARTNERS</text>
  
  <!-- Subheading -->
  <rect x="70" y="32" width="60" height="4" rx="2" fill="#6B7280"/>
  
  <!-- Left Navigation Arrow -->
  <circle cx="25" cy="60" r="8" fill="#F59E0B"/>
  <polygon points="22,60 28,57 28,63" fill="#FFFFFF"/>
  
  <!-- Right Navigation Arrow -->
  <circle cx="175" cy="60" r="8" fill="#F59E0B"/>
  <polygon points="178,60 172,57 172,63" fill="#FFFFFF"/>
  
  <!-- Hotel Logo Containers (4 in a row) -->
  <rect x="40" y="48" width="30" height="24" rx="2" fill="#E5E7EB" stroke="#D1D5DB"/>
  <rect x="42" y="50" width="26" height="12" rx="1" fill="#DBEAFE"/>
  <rect x="42" y="64" width="18" height="2" rx="1" fill="#6B7280"/>
  <rect x="42" y="67" width="12" height="2" rx="1" fill="#9CA3AF"/>
  
  <rect x="78" y="48" width="30" height="24" rx="2" fill="#E5E7EB" stroke="#D1D5DB"/>
  <rect x="80" y="50" width="26" height="12" rx="1" fill="#DBEAFE"/>
  <rect x="80" y="64" width="18" height="2" rx="1" fill="#6B7280"/>
  <rect x="80" y="67" width="12" height="2" rx="1" fill="#9CA3AF"/>
  
  <rect x="116" y="48" width="30" height="24" rx="2" fill="#E5E7EB" stroke="#D1D5DB"/>
  <rect x="118" y="50" width="26" height="12" rx="1" fill="#DBEAFE"/>
  <rect x="118" y="64" width="18" height="2" rx="1" fill="#6B7280"/>
  <rect x="118" y="67" width="12" height="2" rx="1" fill="#9CA3AF"/>
  
  <rect x="154" y="48" width="30" height="24" rx="2" fill="#E5E7EB" stroke="#D1D5DB"/>
  <rect x="156" y="50" width="26" height="12" rx="1" fill="#DBEAFE"/>
  <rect x="156" y="64" width="18" height="2" rx="1" fill="#6B7280"/>
  <rect x="156" y="67" width="12" height="2" rx="1" fill="#9CA3AF"/>
  
  <!-- Carousel Dots Indicator -->
  <circle cx="92" cy="85" r="2" fill="#F59E0B"/>
  <circle cx="100" cy="85" r="2" fill="#D1D5DB"/>
  <circle cx="108" cy="85" r="2" fill="#D1D5DB"/>
  
  <!-- Auto-rotation indicator -->
  <rect x="85" y="92" width="30" height="2" rx="1" fill="#E5E7EB"/>
  <rect x="85" y="92" width="12" height="2" rx="1" fill="#10B981"/>
  
</svg>