<svg width="200" height="120" viewBox="0 0 200 120" fill="none" xmlns="http://www.w3.org/2000/svg">
  <rect width="200" height="120" rx="8" fill="#F3F4F6"/>
  <rect x="12" y="12" width="176" height="96" rx="4" fill="#FFFFFF"/>
  <rect x="20" y="20" width="160" height="60" rx="4" fill="#FFFBEB"/>
  <text x="100" y="35" text-anchor="middle" font-family="Arial, sans-serif" font-size="10" font-weight="bold" fill="#92400E">Local Reviews</text>
  <g transform="translate(60, 45)">
    <polygon points="8,2 10,6 15,6 11,9 13,14 8,11 3,14 5,9 1,6 6,6" fill="#F59E0B"/>
    <polygon points="20,2 22,6 27,6 23,9 25,14 20,11 15,14 17,9 13,6 18,6" fill="#F59E0B"/>
    <polygon points="32,2 34,6 39,6 35,9 37,14 32,11 27,14 29,9 25,6 30,6" fill="#F59E0B"/>
    <polygon points="44,2 46,6 51,6 47,9 49,14 44,11 39,14 41,9 37,6 42,6" fill="#F59E0B"/>
    <polygon points="56,2 58,6 63,6 59,9 61,14 56,11 51,14 53,9 49,6 54,6" fill="#D1D5DB"/>
  </g>
  <text x="100" y="70" text-anchor="middle" font-family="Arial, sans-serif" font-size="8" fill="#6B7280">4.2 out of 5 stars</text>
</svg>