<svg width="200" height="120" viewBox="0 0 200 120" fill="none" xmlns="http://www.w3.org/2000/svg">
  <rect width="200" height="120" rx="8" fill="#F3F4F6"/>
  <rect x="12" y="12" width="176" height="96" rx="4" fill="#FFFFFF"/>
  <rect x="20" y="20" width="48" height="32" rx="4" fill="#E5E7EB"/>
  <rect x="22" y="22" width="44" height="20" rx="2" fill="#DBEAFE"/>
  <rect x="22" y="45" width="30" height="3" rx="1.5" fill="#374151"/>
  <rect x="22" y="50" width="20" height="2" rx="1" fill="#6B7280"/>
  <rect x="76" y="20" width="48" height="32" rx="4" fill="#E5E7EB"/>
  <rect x="78" y="22" width="44" height="20" rx="2" fill="#DBEAFE"/>
  <rect x="78" y="45" width="30" height="3" rx="1.5" fill="#374151"/>
  <rect x="78" y="50" width="20" height="2" rx="1" fill="#6B7280"/>
  <rect x="132" y="20" width="48" height="32" rx="4" fill="#E5E7EB"/>
  <rect x="134" y="22" width="44" height="20" rx="2" fill="#DBEAFE"/>
  <rect x="134" y="45" width="30" height="3" rx="1.5" fill="#374151"/>
  <rect x="134" y="50" width="20" height="2" rx="1" fill="#6B7280"/>
  <rect x="20" y="60" width="160" height="8" rx="4" fill="#1D4ED8"/>
  <text x="100" y="66" text-anchor="middle" font-family="Arial, sans-serif" font-size="6" fill="#FFFFFF">Tours Available</text>
  <circle cx="30" cy="80" r="3" fill="#059669"/>
  <circle cx="40" cy="80" r="3" fill="#059669"/>
  <circle cx="50" cy="80" r="3" fill="#D1D5DB"/>
</svg>