<svg width="200" height="120" viewBox="0 0 200 120" fill="none" xmlns="http://www.w3.org/2000/svg">
  <rect width="200" height="120" rx="8" fill="#F3F4F6"/>
  <rect x="12" y="12" width="176" height="96" rx="4" fill="#FFFFFF"/>
  <rect x="20" y="20" width="80" height="60" rx="4" fill="#F0F9FF"/>
  <circle cx="25" cy="30" r="4" fill="#10B981"/>
  <polygon points="23,30 25,32 29,28" stroke="#FFFFFF" stroke-width="1.5" fill="none"/>
  <rect x="35" y="28" width="50" height="3" rx="1.5" fill="#374151"/>
  <circle cx="25" cy="42" r="4" fill="#10B981"/>
  <polygon points="23,42 25,44 29,40" stroke="#FFFFFF" stroke-width="1.5" fill="none"/>
  <rect x="35" y="40" width="45" height="3" rx="1.5" fill="#374151"/>
  <circle cx="25" cy="54" r="4" fill="#10B981"/>
  <polygon points="23,54 25,56 29,52" stroke="#FFFFFF" stroke-width="1.5" fill="none"/>
  <rect x="35" y="52" width="40" height="3" rx="1.5" fill="#374151"/>
  <circle cx="25" cy="66" r="4" fill="#D1D5DB"/>
  <rect x="35" y="64" width="35" height="3" rx="1.5" fill="#9CA3AF"/>
  <rect x="110" y="20" width="70" height="60" rx="4" fill="#E5E7EB"/>
  <rect x="115" y="25" width="60" height="35" rx="2" fill="#DBEAFE"/>
  <rect x="115" y="65" width="40" height="3" rx="1.5" fill="#374151"/>
  <rect x="115" y="70" width="30" height="3" rx="1.5" fill="#6B7280"/>
</svg>